<svg id="visual" viewBox="0 0 1920 200" width="1920" height="200" xmlns="http://www.w3.org/2000/svg" xmlns:xlink="http://www.w3.org/1999/xlink" version="1.1"><path d="M0 81L29.2 80.7C58.3 80.3 116.7 79.7 174.8 78C233 76.3 291 73.7 349.2 69.3C407.3 65 465.7 59 523.8 59.7C582 60.3 640 67.7 698.2 67.3C756.3 67 814.7 59 872.8 55C931 51 989 51 1047.2 53.7C1105.3 56.3 1163.7 61.7 1221.8 66C1280 70.3 1338 73.7 1396.2 72C1454.3 70.3 1512.7 63.7 1570.8 61C1629 58.3 1687 59.7 1745.2 61.7C1803.3 63.7 1861.7 66.3 1890.8 67.7L1920 69L1920 0L1890.8 0C1861.7 0 1803.3 0 1745.2 0C1687 0 1629 0 1570.8 0C1512.7 0 1454.3 0 1396.2 0C1338 0 1280 0 1221.8 0C1163.7 0 1105.3 0 1047.2 0C989 0 931 0 872.8 0C814.7 0 756.3 0 698.2 0C640 0 582 0 523.8 0C465.7 0 407.3 0 349.2 0C291 0 233 0 174.8 0C116.7 0 58.3 0 29.2 0L0 0Z" fill="#192f58"></path><path d="M0 117L29.2 117.7C58.3 118.3 116.7 119.7 174.8 117C233 114.3 291 107.7 349.2 99C407.3 90.3 465.7 79.7 523.8 81C582 82.3 640 95.7 698.2 97.7C756.3 99.7 814.7 90.3 872.8 88.3C931 86.3 989 91.7 1047.2 93.3C1105.3 95 1163.7 93 1221.8 92.3C1280 91.7 1338 92.3 1396.2 90.7C1454.3 89 1512.7 85 1570.8 83.7C1629 82.3 1687 83.7 1745.2 84.7C1803.3 85.7 1861.7 86.3 1890.8 86.7L1920 87L1920 67L1890.8 65.7C1861.7 64.3 1803.3 61.7 1745.2 59.7C1687 57.7 1629 56.3 1570.8 59C1512.7 61.7 1454.3 68.3 1396.2 70C1338 71.7 1280 68.3 1221.8 64C1163.7 59.7 1105.3 54.3 1047.2 51.7C989 49 931 49 872.8 53C814.7 57 756.3 65 698.2 65.3C640 65.7 582 58.3 523.8 57.7C465.7 57 407.3 63 349.2 67.3C291 71.7 233 74.3 174.8 76C116.7 77.7 58.3 78.3 29.2 78.7L0 79Z" fill="#656d8d"></path><path d="M0 149L29.2 152.3C58.3 155.7 116.7 162.3 174.8 165.3C233 168.3 291 167.7 349.2 169.3C407.3 171 465.7 175 523.8 177C582 179 640 179 698.2 179C756.3 179 814.7 179 872.8 173.7C931 168.3 989 157.7 1047.2 156.3C1105.3 155 1163.7 163 1221.8 166.7C1280 170.3 1338 169.7 1396.2 170.7C1454.3 171.7 1512.7 174.3 1570.8 171.7C1629 169 1687 161 1745.2 154C1803.3 147 1861.7 141 1890.8 138L1920 135L1920 85L1890.8 84.7C1861.7 84.3 1803.3 83.7 1745.2 82.7C1687 81.7 1629 80.3 1570.8 81.7C1512.7 83 1454.3 87 1396.2 88.7C1338 90.3 1280 89.7 1221.8 90.3C1163.7 91 1105.3 93 1047.2 91.3C989 89.7 931 84.3 872.8 86.3C814.7 88.3 756.3 97.7 698.2 95.7C640 93.7 582 80.3 523.8 79C465.7 77.7 407.3 88.3 349.2 97C291 105.7 233 112.3 174.8 115C116.7 117.7 58.3 116.3 29.2 115.7L0 115Z" fill="#b0b3c4"></path><path d="M0 201L29.2 201C58.3 201 116.7 201 174.8 201C233 201 291 201 349.2 201C407.3 201 465.7 201 523.8 201C582 201 640 201 698.2 201C756.3 201 814.7 201 872.8 201C931 201 989 201 1047.2 201C1105.3 201 1163.7 201 1221.8 201C1280 201 1338 201 1396.2 201C1454.3 201 1512.7 201 1570.8 201C1629 201 1687 201 1745.2 201C1803.3 201 1861.7 201 1890.8 201L1920 201L1920 133L1890.8 136C1861.7 139 1803.3 145 1745.2 152C1687 159 1629 167 1570.8 169.7C1512.7 172.3 1454.3 169.7 1396.2 168.7C1338 167.7 1280 168.3 1221.8 164.7C1163.7 161 1105.3 153 1047.2 154.3C989 155.7 931 166.3 872.8 171.7C814.7 177 756.3 177 698.2 177C640 177 582 177 523.8 175C465.7 173 407.3 169 349.2 167.3C291 165.7 233 166.3 174.8 163.3C116.7 160.3 58.3 153.7 29.2 150.3L0 147Z" fill="#ffffff"></path></svg>